<?xml version="1.0" standalone="no"?><svg xmlns="http://www.w3.org/2000/svg" viewBox="0 0 1440 320"><path fill="#11101d" fill-opacity="0.9" d="M0,224L40,218.7C80,213,160,203,240,208C320,213,400,235,480,234.7C560,235,640,213,720,176C800,139,880,85,960,69.3C1040,53,1120,75,1200,106.7C1280,139,1360,181,1400,202.7L1440,224L1440,320L1400,320C1360,320,1280,320,1200,320C1120,320,1040,320,960,320C880,320,800,320,720,320C640,320,560,320,480,320C400,320,320,320,240,320C160,320,80,320,40,320L0,320Z"></path></svg>